0
SECTION
2
HEADER
9
$ACADVER
1
AC1015
9
$INSUNITS
70
4
0
ENDSEC
0
SECTION
2
TABLES
0
TABLE
2
LAYER
0
LAYER
2
A-FLOR
70
0
62
7
6
CONTINUOUS
0
LAYER
2
A-GLAZ
70
0
62
7
6
CONTINUOUS
0
LAYER
2
A-WALL
70
0
62
7
6
CONTINUOUS
0
LAYER
2
A-WALL-HIDN
70
0
62
7
6
CONTINUOUS
0
LAYER
2
S-COLS
70
0
62
7
6
CONTINUOUS
0
LAYER
2
S-BEAM
70
0
62
7
6
CONTINUOUS
0
LAYER
2
A-DOOR
70
0
62
7
6
CONTINUOUS
0
LAYER
2
A-DIMS
70
0
62
7
6
CONTINUOUS
0
LAYER
2
A-NOTE
70
0
62
7
6
CONTINUOUS
0
LAYER
2
A-PATT
70
0
62
7
6
CONTINUOUS
0
ENDTAB
0
ENDSEC
0
SECTION
2
ENTITIES
0
LINE
8
A-DOOR
10
2550
20
4500
30
0.0
11
2550
21
5400
31
0.0
0
LINE
8
A-DOOR
10
7120
20
4500
30
0.0
11
7880
21
4500
31
0.0
0
LINE
8
A-DOOR
10
6000
20
2700
30
0.0
11
5100
21
2700
31
0.0
0
LINE
8
A-DOOR
10
1550
20
0
30
0.0
11
1550
21
900
31
0.0
0
LINE
8
A-GLAZ
10
7100
20
52.5
30
0.0
11
8900
21
52.5
31
0.0
0
LINE
8
A-GLAZ
10
7100
20
-52.5
30
0.0
11
8900
21
-52.5
31
0.0
0
LINE
8
A-GLAZ
10
7100
20
52.5
30
0.0
11
7100
21
-52.5
31
0.0
0
LINE
8
A-GLAZ
10
8900
20
52.5
30
0.0
11
8900
21
-52.5
31
0.0
0
LINE
8
A-GLAZ
10
11947.5
20
1650
30
0.0
11
11947.5
21
2850
31
0.0
0
LINE
8
A-GLAZ
10
12052.5
20
1650
30
0.0
11
12052.5
21
2850
31
0.0
0
LINE
8
A-GLAZ
10
11947.5
20
1650
30
0.0
11
12052.5
21
1650
31
0.0
0
LINE
8
A-GLAZ
10
11947.5
20
2850
30
0.0
11
12052.5
21
2850
31
0.0
0
LINE
8
A-GLAZ
10
8250
20
8947.5
30
0.0
11
6750
21
8947.5
31
0.0
0
LINE
8
A-GLAZ
10
8250
20
9052.5
30
0.0
11
6750
21
9052.5
31
0.0
0
LINE
8
A-GLAZ
10
8250
20
8947.5
30
0.0
11
8250
21
9052.5
31
0.0
0
LINE
8
A-GLAZ
10
6750
20
8947.5
30
0.0
11
6750
21
9052.5
31
0.0
0
LINE
8
A-GLAZ
10
11947.5
20
6450
30
0.0
11
11947.5
21
7050
31
0.0
0
LINE
8
A-GLAZ
10
12052.5
20
6450
30
0.0
11
12052.5
21
7050
31
0.0
0
LINE
8
A-GLAZ
10
11947.5
20
6450
30
0.0
11
12052.5
21
6450
31
0.0
0
LINE
8
A-GLAZ
10
11947.5
20
7050
30
0.0
11
12052.5
21
7050
31
0.0
0
LWPOLYLINE
8
A-WALL
90
4
70
1
10
0
20
0.29175
10
12000
20
0.29175
10
12000
20
-0.29175
10
0
20
-0.29175
0
LWPOLYLINE
8
A-WALL
90
4
70
1
10
11999.7
20
0
10
11999.7
20
9000
10
12000.3
20
9000
10
12000.3
20
0
0
LWPOLYLINE
8
A-WALL
90
4
70
1
10
12000
20
8999.71
10
0
20
8999.71
10
0
20
9000.29
10
12000
20
9000.29
0
LWPOLYLINE
8
A-WALL
90
4
70
1
10
0.29175
20
9000
10
0.29175
20
0
10
-0.29175
20
0
10
-0.29175
20
9000
0
LWPOLYLINE
8
A-WALL
90
4
70
1
10
5999.81
20
0
10
5999.81
20
4500
10
6000.19
20
4500
10
6000.19
20
0
0
LWPOLYLINE
8
A-WALL
90
4
70
1
10
0
20
4500.19
10
6000
20
4500.19
10
6000
20
4499.81
10
0
20
4499.81
0
LWPOLYLINE
8
A-WALL
90
4
70
1
10
6000
20
4500.19
10
12000
20
4500.19
10
12000
20
4499.81
10
6000
20
4499.81
0
LWPOLYLINE
8
A-WALL
90
4
70
1
10
8999.73
20
4500
10
8999.73
20
9000
10
9000.27
20
9000
10
9000.27
20
4500
0
ARC
8
A-DOOR
10
2550
20
4500
30
0.0
40
900
50
0
51
90
0
ARC
8
A-DOOR
10
6000
20
2700
30
0.0
40
900
50
-90
51
180
0
ARC
8
A-DOOR
10
1550
20
0
30
0.0
40
900
50
0
51
90
0
LWPOLYLINE
8
A-WALL
90
4
70
1
10
0
20
0.29175
10
12000
20
0.29175
10
12000
20
-0.29175
10
0
20
-0.29175
0
LWPOLYLINE
8
A-WALL
90
4
70
1
10
11999.7
20
0
10
11999.7
20
9000
10
12000.3
20
9000
10
12000.3
20
0
0
LWPOLYLINE
8
A-WALL
90
4
70
1
10
12000
20
8999.71
10
0
20
8999.71
10
0
20
9000.29
10
12000
20
9000.29
0
LWPOLYLINE
8
A-WALL
90
4
70
1
10
0.29175
20
9000
10
0.29175
20
0
10
-0.29175
20
0
10
-0.29175
20
9000
0
LWPOLYLINE
8
A-WALL
90
4
70
1
10
5999.81
20
0
10
5999.81
20
4500
10
6000.19
20
4500
10
6000.19
20
0
0
LWPOLYLINE
8
A-WALL
90
4
70
1
10
0
20
4500.19
10
6000
20
4500.19
10
6000
20
4499.81
10
0
20
4499.81
0
LWPOLYLINE
8
A-WALL
90
4
70
1
10
6000
20
4500.19
10
12000
20
4500.19
10
12000
20
4499.81
10
6000
20
4499.81
0
LWPOLYLINE
8
A-WALL
90
4
70
1
10
8999.73
20
4500
10
8999.73
20
9000
10
9000.27
20
9000
10
9000.27
20
4500
0
LWPOLYLINE
8
A-DOOR
90
4
70
1
10
2550
20
4442.5
10
3450
20
4442.5
10
3450
20
4557.5
10
2550
20
4557.5
0
LWPOLYLINE
8
A-DOOR
90
4
70
1
10
7120
20
4442.5
10
7880
20
4442.5
10
7880
20
4557.5
10
7120
20
4557.5
0
LWPOLYLINE
8
A-DOOR
90
4
70
1
10
6057.5
20
1800
10
6057.5
20
2700
10
5942.5
20
2700
10
5942.5
20
1800
0
LWPOLYLINE
8
A-DOOR
90
4
70
1
10
1550
20
-87.5
10
2450
20
-87.5
10
2450
20
87.5
10
1550
20
87.5
0
ENDSEC
0
EOF
